<?xml version="1.0" encoding="UTF-8"?>
<svg id="Layer_2" data-name="Layer 2" xmlns="http://www.w3.org/2000/svg" viewBox="0 0 616.84 312.69">
  <defs>
    <style>
      .cls-1 {
        stroke-width: 0px;
      }
    </style>
  </defs>
  <g id="Layer_1-2" data-name="Layer 1">
    <g>
      <g>
        <polygon class="cls-1" points="462.79 58.63 462.79 121.34 391.12 121.34 313.8 203.05 273.66 154.32 304.84 121.34 364.24 58.63 462.79 58.63"/>
        <polygon class="cls-1" points="166.15 144.43 166.15 81.71 237.82 81.71 315.14 0 355.28 48.74 324.1 81.71 264.7 144.43 166.15 144.43"/>
      </g>
      <g>
        <path class="cls-1" d="M17.29,311.25v-57.65c0-.29-.19-.48-.48-.48H.48c-.29,0-.48-.19-.48-.48v-9.1c0-.29.19-.48.48-.48h44.92c.29,0,.48.19.48.48v9.1c0,.29-.19.48-.48.48h-16.28c-.29,0-.48.19-.48.48v57.65c0,.29-.19.48-.48.48h-10.39c-.29,0-.48-.19-.48-.48Z"/>
        <path class="cls-1" d="M44.33,311.25v-67.71c0-.29.19-.48.48-.48h9.96c.29,0,.48.19.48.48v23.08c0,.43.29.57.57.24,2.92-2.87,7.61-4.64,12.31-4.64,12.64,0,19.82,6.27,19.82,18.39v30.65c0,.29-.19.48-.48.48h-9.91c-.29,0-.48-.19-.48-.48v-28.73c0-7.18-3.93-11.2-10.87-11.2s-10.97,4.5-10.97,11.97v27.97c0,.29-.19.48-.48.48h-9.96c-.29,0-.48-.19-.48-.48Z"/>
        <path class="cls-1" d="M91.88,287.46c0-15.47,9.96-25.24,24.28-25.24,13.41,0,22.89,8.57,22.94,24.9l-.1,3.26c0,.33-.19.48-.48.48h-35.53c-.29,0-.53.19-.48.53,1.24,8.38,6.42,12.69,13.74,12.69,4.84,0,9-2.11,11.16-7.42.1-.24.29-.38.53-.38h9.77c.34,0,.48.24.38.62-2.92,11.25-11.49,15.8-21.98,15.8-14.84,0-24.23-9.77-24.23-25.23ZM103.33,282h24.66c.29,0,.53-.19.43-.53-1.05-6.94-5.7-10.68-12.07-10.68-7.13,0-11.83,3.97-13.46,10.68-.05.33.1.53.43.53Z"/>
        <path class="cls-1" d="M166.9,311.25v-67.71c0-.29.19-.48.48-.48h21.88c19.25,0,32.66,12.88,32.66,34.29s-13.41,34.38-32.66,34.38h-21.88c-.29,0-.48-.19-.48-.48ZM210.53,277.35c0-15.18-8.33-24.23-21.26-24.23h-10.54c-.29,0-.48.19-.48.48v47.65c0,.29.19.48.48.48h10.54c12.93,0,21.26-9.1,21.26-24.37Z"/>
        <path class="cls-1" d="M225.47,287.46c0-15.47,9.96-25.24,24.28-25.24,13.41,0,22.89,8.57,22.94,24.9l-.1,3.26c0,.33-.19.48-.48.48h-35.53c-.29,0-.53.19-.48.53,1.24,8.38,6.42,12.69,13.74,12.69,4.84,0,9-2.11,11.16-7.42.1-.24.29-.38.53-.38h9.77c.34,0,.48.24.38.62-2.92,11.25-11.49,15.8-21.98,15.8-14.84,0-24.23-9.77-24.23-25.23ZM236.91,282h24.66c.29,0,.53-.19.43-.53-1.05-6.94-5.7-10.68-12.07-10.68-7.14,0-11.83,3.97-13.46,10.68-.05.33.1.53.43.53Z"/>
        <path class="cls-1" d="M275.22,297.13c0-9.24,6.56-15.47,18.82-15.47h15.37c.29,0,.48-.19.48-.48v-.82c0-6.22-3.74-9.58-10.87-9.58-6.32,0-9.96,2.63-10.92,7.61-.1.29-.24.43-.53.43h-10.06c-.29,0-.53-.19-.48-.53,1.53-10.29,9.19-16.09,22.12-16.09,13.65,0,21.6,7.09,21.6,18.24v20.5c0,1.44.67,2.11,2.11,2.11h2.11c.29,0,.48.19.48.48v7.71c0,.29-.19.48-.48.48h-6.08c-3.54,0-6.03-1.15-7.13-3.69-.14-.33-.33-.43-.58-.19-3.64,3.64-9.72,4.84-15.66,4.84-12.93,0-20.3-5.79-20.3-15.56ZM310.03,291.81v-.96c0-.29-.19-.48-.48-.48h-14.17c-6.46,0-9.19,2.2-9.19,6.46,0,4.74,3.54,7.52,10.54,7.52,8.14,0,13.31-3.83,13.31-12.55Z"/>
        <path class="cls-1" d="M328.75,311.25v-67.71c0-.29.19-.48.48-.48h9.96c.29,0,.48.19.48.48v67.71c0,.29-.19.48-.48.48h-9.96c-.29,0-.48-.19-.48-.48Z"/>
        <path class="cls-1" d="M369.52,311.25v-67.71c0-.29.19-.48.48-.48h16.38c.24,0,.48.1.58.38l17.09,47.36c.14.38.53.38.67,0l17.14-47.36c.1-.29.34-.38.58-.38h16.38c.29,0,.48.19.48.48v67.71c0,.29-.19.48-.48.48h-10.44c-.29,0-.48-.19-.48-.48v-53.68c0-.43-.38-.53-.53-.1l-19.63,53.87c-.1.29-.34.38-.58.38h-5.55c-.24,0-.48-.1-.58-.38l-19.63-53.87c-.14-.43-.53-.33-.53.1v53.68c0,.29-.19.48-.48.48h-10.39c-.29,0-.48-.19-.48-.48Z"/>
        <path class="cls-1" d="M444.42,297.13c0-9.24,6.56-15.47,18.82-15.47h15.37c.29,0,.48-.19.48-.48v-.82c0-6.22-3.73-9.58-10.87-9.58-6.32,0-9.96,2.63-10.92,7.61-.1.29-.24.43-.53.43h-10.06c-.29,0-.53-.19-.48-.53,1.53-10.29,9.19-16.09,22.12-16.09,13.65,0,21.6,7.09,21.6,18.24v20.5c0,1.44.67,2.11,2.11,2.11h2.11c.29,0,.48.19.48.48v7.71c0,.29-.19.48-.48.48h-6.08c-3.54,0-6.03-1.15-7.13-3.69-.14-.33-.34-.43-.58-.19-3.64,3.64-9.72,4.84-15.66,4.84-12.93,0-20.3-5.79-20.3-15.56ZM479.23,291.81v-.96c0-.29-.19-.48-.48-.48h-14.17c-6.46,0-9.19,2.2-9.19,6.46,0,4.74,3.54,7.52,10.54,7.52,8.14,0,13.31-3.83,13.31-12.55Z"/>
        <path class="cls-1" d="M529.13,311.45l-13.6-19.87c-.14-.24-.34-.29-.58-.29h-5.6c-.29,0-.48.19-.48.48v19.49c0,.29-.19.48-.48.48h-9.96c-.29,0-.48-.19-.48-.48v-67.71c0-.29.19-.48.48-.48h9.96c.29,0,.48.19.48.48v37.35c0,.29.19.48.48.48h5.65c.24,0,.48-.1.62-.29l13.93-17.62c.14-.19.38-.29.62-.29h11.54c.38,0,.53.24.29.58l-17.29,21.93c-.14.19-.14.43,0,.67l17.33,24.8c.24.29.1.58-.29.58h-12.07c-.24,0-.43-.05-.58-.29Z"/>
        <path class="cls-1" d="M538.03,287.46c0-15.47,9.96-25.24,24.28-25.24,13.41,0,22.89,8.57,22.94,24.9l-.1,3.26c0,.33-.19.48-.48.48h-35.53c-.29,0-.53.19-.48.53,1.24,8.38,6.42,12.69,13.74,12.69,4.84,0,9-2.11,11.16-7.42.1-.24.29-.38.53-.38h9.77c.34,0,.48.24.38.62-2.92,11.25-11.49,15.8-21.98,15.8-14.84,0-24.23-9.77-24.23-25.23ZM549.47,282h24.66c.29,0,.53-.19.43-.53-1.05-6.94-5.7-10.68-12.07-10.68-7.14,0-11.83,3.97-13.46,10.68-.05.33.1.53.43.53Z"/>
        <path class="cls-1" d="M588.83,311.25v-47.6c0-.29.19-.48.48-.48h8.95c.24,0,.43.1.53.38l1.82,4.36c.14.33.43.38.62,0,1.87-3.16,5.17-4.74,9.43-4.74h5.7c.29,0,.48.19.48.48v8.76c0,.29-.19.48-.48.48h-7.09c-6.03,0-9.53,4.02-9.53,12.59v25.76c0,.29-.19.48-.48.48h-9.96c-.29,0-.48-.19-.48-.48Z"/>
      </g>
    </g>
  </g>
</svg>